<mxfile host="app.diagrams.net" agent="Mozilla/5.0 (Windows NT 10.0; Win64; x64) AppleWebKit/537.36 (KHTML, like Gecko) Chrome/139.0.0.0 Safari/537.36 Edg/139.0.0.0" version="28.1.1">
  <diagram name="Page-1" id="xJwR-xiYJqFhpceZLavF">
    <mxGraphModel dx="1418" dy="786" grid="1" gridSize="10" guides="1" tooltips="1" connect="1" arrows="1" fold="1" page="1" pageScale="1" pageWidth="850" pageHeight="1100" math="0" shadow="0">
      <root>
        <mxCell id="0" />
        <mxCell id="1" parent="0" />
        <mxCell id="9VTizzHhzbztYu5oRSLs-3" value="" style="edgeStyle=orthogonalEdgeStyle;rounded=0;orthogonalLoop=1;jettySize=auto;html=1;flowAnimation=1;" edge="1" parent="1" source="9VTizzHhzbztYu5oRSLs-1" target="9VTizzHhzbztYu5oRSLs-2">
          <mxGeometry relative="1" as="geometry" />
        </mxCell>
        <mxCell id="9VTizzHhzbztYu5oRSLs-6" style="edgeStyle=orthogonalEdgeStyle;rounded=0;orthogonalLoop=1;jettySize=auto;html=1;exitX=1;exitY=0.5;exitDx=0;exitDy=0;entryX=0.5;entryY=0;entryDx=0;entryDy=0;flowAnimation=1;" edge="1" parent="1" source="9VTizzHhzbztYu5oRSLs-1" target="9VTizzHhzbztYu5oRSLs-4">
          <mxGeometry relative="1" as="geometry" />
        </mxCell>
        <mxCell id="9VTizzHhzbztYu5oRSLs-1" value="User Interface" style="rounded=0;whiteSpace=wrap;html=1;" vertex="1" parent="1">
          <mxGeometry x="340" y="60" width="120" height="60" as="geometry" />
        </mxCell>
        <mxCell id="9VTizzHhzbztYu5oRSLs-9" style="edgeStyle=orthogonalEdgeStyle;rounded=0;orthogonalLoop=1;jettySize=auto;html=1;exitX=0.5;exitY=1;exitDx=0;exitDy=0;flowAnimation=1;" edge="1" parent="1" source="9VTizzHhzbztYu5oRSLs-2" target="9VTizzHhzbztYu5oRSLs-8">
          <mxGeometry relative="1" as="geometry" />
        </mxCell>
        <mxCell id="9VTizzHhzbztYu5oRSLs-2" value="Stateful Agents" style="rounded=0;whiteSpace=wrap;html=1;" vertex="1" parent="1">
          <mxGeometry x="170" y="200" width="120" height="60" as="geometry" />
        </mxCell>
        <mxCell id="9VTizzHhzbztYu5oRSLs-10" style="edgeStyle=orthogonalEdgeStyle;rounded=0;orthogonalLoop=1;jettySize=auto;html=1;exitX=0.5;exitY=1;exitDx=0;exitDy=0;flowAnimation=1;" edge="1" parent="1" source="9VTizzHhzbztYu5oRSLs-4">
          <mxGeometry relative="1" as="geometry">
            <mxPoint x="400" y="300" as="targetPoint" />
          </mxGeometry>
        </mxCell>
        <mxCell id="9VTizzHhzbztYu5oRSLs-4" value="Stateful Agents" style="rounded=0;whiteSpace=wrap;html=1;" vertex="1" parent="1">
          <mxGeometry x="510" y="200" width="120" height="60" as="geometry" />
        </mxCell>
        <mxCell id="9VTizzHhzbztYu5oRSLs-7" value="" style="endArrow=classic;startArrow=classic;html=1;rounded=0;entryX=0;entryY=0.5;entryDx=0;entryDy=0;exitX=1;exitY=0.5;exitDx=0;exitDy=0;flowAnimation=1;" edge="1" parent="1" source="9VTizzHhzbztYu5oRSLs-2" target="9VTizzHhzbztYu5oRSLs-4">
          <mxGeometry width="50" height="50" relative="1" as="geometry">
            <mxPoint x="370" y="229.5" as="sourcePoint" />
            <mxPoint x="440" y="229.5" as="targetPoint" />
          </mxGeometry>
        </mxCell>
        <mxCell id="9VTizzHhzbztYu5oRSLs-13" value="" style="edgeStyle=orthogonalEdgeStyle;rounded=0;orthogonalLoop=1;jettySize=auto;html=1;flowAnimation=1;" edge="1" parent="1" source="9VTizzHhzbztYu5oRSLs-8" target="9VTizzHhzbztYu5oRSLs-12">
          <mxGeometry relative="1" as="geometry" />
        </mxCell>
        <mxCell id="9VTizzHhzbztYu5oRSLs-27" value="" style="edgeStyle=orthogonalEdgeStyle;rounded=0;orthogonalLoop=1;jettySize=auto;html=1;flowAnimation=1;" edge="1" parent="1" source="9VTizzHhzbztYu5oRSLs-8" target="9VTizzHhzbztYu5oRSLs-26">
          <mxGeometry relative="1" as="geometry" />
        </mxCell>
        <mxCell id="9VTizzHhzbztYu5oRSLs-8" value="Azure AI Foundry&lt;div&gt;Orchestrator&lt;/div&gt;" style="rounded=0;whiteSpace=wrap;html=1;" vertex="1" parent="1">
          <mxGeometry x="290" y="300" width="220" height="60" as="geometry" />
        </mxCell>
        <mxCell id="9VTizzHhzbztYu5oRSLs-15" value="" style="edgeStyle=orthogonalEdgeStyle;rounded=0;orthogonalLoop=1;jettySize=auto;html=1;flowAnimation=1;" edge="1" parent="1" source="9VTizzHhzbztYu5oRSLs-12" target="9VTizzHhzbztYu5oRSLs-14">
          <mxGeometry relative="1" as="geometry" />
        </mxCell>
        <mxCell id="9VTizzHhzbztYu5oRSLs-21" value="" style="edgeStyle=orthogonalEdgeStyle;rounded=0;orthogonalLoop=1;jettySize=auto;html=1;flowAnimation=1;" edge="1" parent="1" source="9VTizzHhzbztYu5oRSLs-12" target="9VTizzHhzbztYu5oRSLs-20">
          <mxGeometry relative="1" as="geometry" />
        </mxCell>
        <mxCell id="9VTizzHhzbztYu5oRSLs-12" value="Azure AI Search" style="whiteSpace=wrap;html=1;rounded=0;" vertex="1" parent="1">
          <mxGeometry x="340" y="440" width="120" height="60" as="geometry" />
        </mxCell>
        <mxCell id="9VTizzHhzbztYu5oRSLs-17" value="" style="edgeStyle=orthogonalEdgeStyle;rounded=0;orthogonalLoop=1;jettySize=auto;html=1;flowAnimation=1;" edge="1" parent="1" source="9VTizzHhzbztYu5oRSLs-14" target="9VTizzHhzbztYu5oRSLs-16">
          <mxGeometry relative="1" as="geometry" />
        </mxCell>
        <mxCell id="9VTizzHhzbztYu5oRSLs-14" value="RAG" style="whiteSpace=wrap;html=1;rounded=0;" vertex="1" parent="1">
          <mxGeometry x="140" y="440" width="120" height="60" as="geometry" />
        </mxCell>
        <mxCell id="9VTizzHhzbztYu5oRSLs-33" style="edgeStyle=orthogonalEdgeStyle;rounded=0;orthogonalLoop=1;jettySize=auto;html=1;entryX=0.5;entryY=0;entryDx=0;entryDy=0;flowAnimation=1;" edge="1" parent="1" source="9VTizzHhzbztYu5oRSLs-16" target="9VTizzHhzbztYu5oRSLs-22">
          <mxGeometry relative="1" as="geometry" />
        </mxCell>
        <mxCell id="9VTizzHhzbztYu5oRSLs-16" value="Blob Storage" style="whiteSpace=wrap;html=1;rounded=0;" vertex="1" parent="1">
          <mxGeometry x="140" y="580" width="120" height="60" as="geometry" />
        </mxCell>
        <mxCell id="9VTizzHhzbztYu5oRSLs-23" value="" style="edgeStyle=orthogonalEdgeStyle;rounded=0;orthogonalLoop=1;jettySize=auto;html=1;flowAnimation=1;" edge="1" parent="1" source="9VTizzHhzbztYu5oRSLs-20" target="9VTizzHhzbztYu5oRSLs-22">
          <mxGeometry relative="1" as="geometry" />
        </mxCell>
        <mxCell id="9VTizzHhzbztYu5oRSLs-25" value="" style="edgeStyle=orthogonalEdgeStyle;rounded=0;orthogonalLoop=1;jettySize=auto;html=1;" edge="1" parent="1" source="9VTizzHhzbztYu5oRSLs-20" target="9VTizzHhzbztYu5oRSLs-24">
          <mxGeometry relative="1" as="geometry" />
        </mxCell>
        <mxCell id="9VTizzHhzbztYu5oRSLs-20" value="Azure Monitor" style="whiteSpace=wrap;html=1;rounded=0;" vertex="1" parent="1">
          <mxGeometry x="340" y="580" width="120" height="60" as="geometry" />
        </mxCell>
        <mxCell id="9VTizzHhzbztYu5oRSLs-22" value="Telemetry and Logs" style="whiteSpace=wrap;html=1;rounded=0;" vertex="1" parent="1">
          <mxGeometry x="340" y="720" width="120" height="60" as="geometry" />
        </mxCell>
        <mxCell id="9VTizzHhzbztYu5oRSLs-32" value="" style="edgeStyle=orthogonalEdgeStyle;rounded=0;orthogonalLoop=1;jettySize=auto;html=1;flowAnimation=1;" edge="1" parent="1" source="9VTizzHhzbztYu5oRSLs-24" target="9VTizzHhzbztYu5oRSLs-20">
          <mxGeometry relative="1" as="geometry" />
        </mxCell>
        <mxCell id="9VTizzHhzbztYu5oRSLs-24" value="Audit Logs" style="whiteSpace=wrap;html=1;rounded=0;" vertex="1" parent="1">
          <mxGeometry x="540" y="580" width="120" height="60" as="geometry" />
        </mxCell>
        <mxCell id="9VTizzHhzbztYu5oRSLs-26" value="Responsible AI" style="rounded=0;whiteSpace=wrap;html=1;" vertex="1" parent="1">
          <mxGeometry x="590" y="300" width="220" height="60" as="geometry" />
        </mxCell>
      </root>
    </mxGraphModel>
  </diagram>
</mxfile>
